<?xml version="1.0" encoding="UTF-8" standalone="no"?>
<!DOCTYPE svg PUBLIC "-//W3C//DTD SVG 1.1//EN"
 "http://www.w3.org/Graphics/SVG/1.1/DTD/svg11.dtd">
<!-- Generated by graphviz version 2.43.0 (0)
 -->
<!-- Title: %3 Pages: 1 -->
<svg width="215pt" height="1161pt"
 viewBox="0.00 0.00 214.68 1160.53" xmlns="http://www.w3.org/2000/svg" xmlns:xlink="http://www.w3.org/1999/xlink">
<g id="graph0" class="graph" transform="scale(1 1) rotate(0) translate(4 1156.53)">
<title>%3</title>
<polygon fill="white" stroke="transparent" points="-4,4 -4,-1156.53 210.68,-1156.53 210.68,4 -4,4"/>
<!-- 6120239059623422429 -->
<g id="node1" class="node">
<title>6120239059623422429</title>
<ellipse fill="none" stroke="black" cx="103.34" cy="-979.14" rx="101.28" ry="101.28"/>
<text text-anchor="middle" x="103.34" y="-975.44" font-family="Times,serif" font-size="14.00">sendToRedisSearch</text>
</g>
<!-- &#45;4642029244030521091 -->
<g id="node2" class="node">
<title>&#45;4642029244030521091</title>
<polygon fill="none" stroke="black" points="130.34,-1152.53 76.34,-1152.53 76.34,-1116.53 130.34,-1116.53 130.34,-1152.53"/>
</g>
<!-- 6120239059623422429&#45;&gt;&#45;4642029244030521091 -->
<g id="edge1" class="edge">
<title>6120239059623422429&#45;&gt;&#45;4642029244030521091</title>
<path fill="none" stroke="black" d="M103.34,-1080.74C103.34,-1089.85 103.34,-1098.46 103.34,-1105.97"/>
<polygon fill="black" stroke="black" points="99.84,-1106.14 103.34,-1116.14 106.84,-1106.14 99.84,-1106.14"/>
</g>
<!-- 6487080192896863318 -->
<g id="node3" class="node">
<title>6487080192896863318</title>
<polygon fill="none" stroke="black" points="130.34,-841.75 76.34,-841.75 76.34,-805.75 130.34,-805.75 130.34,-841.75"/>
</g>
<!-- 6487080192896863318&#45;&gt;6120239059623422429 -->
<g id="edge2" class="edge">
<title>6487080192896863318&#45;&gt;6120239059623422429</title>
<path fill="none" stroke="black" d="M103.34,-841.75C103.34,-848.83 103.34,-857.69 103.34,-867.46"/>
<polygon fill="black" stroke="black" points="99.84,-867.52 103.34,-877.52 106.84,-867.52 99.84,-867.52"/>
</g>
<!-- 343298857892200931 -->
<g id="node4" class="node">
<title>343298857892200931</title>
<ellipse fill="none" stroke="black" cx="103.34" cy="-666.41" rx="103.18" ry="103.18"/>
<text text-anchor="middle" x="103.34" y="-662.71" font-family="Times,serif" font-size="14.00">vectorEnhancedDoc</text>
</g>
<!-- 343298857892200931&#45;&gt;6487080192896863318 -->
<g id="edge3" class="edge">
<title>343298857892200931&#45;&gt;6487080192896863318</title>
<path fill="none" stroke="black" d="M103.34,-770.16C103.34,-779.26 103.34,-787.84 103.34,-795.33"/>
<polygon fill="black" stroke="black" points="99.84,-795.46 103.34,-805.46 106.84,-795.46 99.84,-795.46"/>
</g>
<!-- 5420346469323267326 -->
<g id="node5" class="node">
<title>5420346469323267326</title>
<polygon fill="none" stroke="black" points="130.34,-527.07 76.34,-527.07 76.34,-491.07 130.34,-491.07 130.34,-527.07"/>
</g>
<!-- 5420346469323267326&#45;&gt;343298857892200931 -->
<g id="edge4" class="edge">
<title>5420346469323267326&#45;&gt;343298857892200931</title>
<path fill="none" stroke="black" d="M103.34,-527.29C103.34,-534.26 103.34,-542.94 103.34,-552.53"/>
<polygon fill="black" stroke="black" points="99.84,-552.82 103.34,-562.82 106.84,-552.82 99.84,-552.82"/>
</g>
<!-- &#45;5840274273197267717 -->
<g id="node6" class="node">
<title>&#45;5840274273197267717</title>
<ellipse fill="none" stroke="black" cx="103.34" cy="-375.78" rx="79.09" ry="79.09"/>
<text text-anchor="middle" x="103.34" y="-372.08" font-family="Times,serif" font-size="14.00">stringToVector</text>
</g>
<!-- &#45;5840274273197267717&#45;&gt;5420346469323267326 -->
<g id="edge5" class="edge">
<title>&#45;5840274273197267717&#45;&gt;5420346469323267326</title>
<path fill="none" stroke="black" d="M103.34,-455.42C103.34,-464.48 103.34,-473.19 103.34,-480.84"/>
<polygon fill="black" stroke="black" points="99.84,-480.85 103.34,-490.85 106.84,-480.85 99.84,-480.85"/>
</g>
<!-- &#45;6939635485549852521 -->
<g id="node7" class="node">
<title>&#45;6939635485549852521</title>
<polygon fill="none" stroke="black" points="130.34,-260.48 76.34,-260.48 76.34,-224.48 130.34,-224.48 130.34,-260.48"/>
</g>
<!-- &#45;6939635485549852521&#45;&gt;&#45;5840274273197267717 -->
<g id="edge6" class="edge">
<title>&#45;6939635485549852521&#45;&gt;&#45;5840274273197267717</title>
<path fill="none" stroke="black" d="M103.34,-260.65C103.34,-267.77 103.34,-276.6 103.34,-286.19"/>
<polygon fill="black" stroke="black" points="99.84,-286.41 103.34,-296.41 106.84,-286.41 99.84,-286.41"/>
</g>
<!-- &#45;7315998647499805147 -->
<g id="node8" class="node">
<title>&#45;7315998647499805147</title>
<ellipse fill="none" stroke="black" cx="103.34" cy="-94.24" rx="94.48" ry="94.48"/>
<text text-anchor="middle" x="103.34" y="-90.54" font-family="Times,serif" font-size="14.00">listToJoinedWords</text>
</g>
<!-- &#45;7315998647499805147&#45;&gt;&#45;6939635485549852521 -->
<g id="edge7" class="edge">
<title>&#45;7315998647499805147&#45;&gt;&#45;6939635485549852521</title>
<path fill="none" stroke="black" d="M103.34,-188.69C103.34,-197.97 103.34,-206.78 103.34,-214.45"/>
<polygon fill="black" stroke="black" points="99.84,-214.46 103.34,-224.46 106.84,-214.46 99.84,-214.46"/>
</g>
</g>
</svg>
