<?xml version="1.0" encoding="UTF-8" standalone="no"?>
<!DOCTYPE svg PUBLIC "-//W3C//DTD SVG 1.1//EN"
 "http://www.w3.org/Graphics/SVG/1.1/DTD/svg11.dtd">
<!-- Generated by graphviz version 2.43.0 (0)
 -->
<!-- Title: %3 Pages: 1 -->
<svg width="193pt" height="260pt"
 viewBox="0.00 0.00 193.00 260.00" xmlns="http://www.w3.org/2000/svg" xmlns:xlink="http://www.w3.org/1999/xlink">
<g id="graph0" class="graph" transform="scale(1 1) rotate(0) translate(4 256)">
<title>%3</title>
<polygon fill="white" stroke="transparent" points="-4,4 -4,-256 189,-256 189,4 -4,4"/>
<!-- &#45;4696367986999773260 -->
<g id="node1" class="node">
<title>&#45;4696367986999773260</title>
<polygon fill="none" stroke="black" points="177.5,-36 7.5,-36 7.5,0 177.5,0 177.5,-36"/>
<text text-anchor="middle" x="92.5" y="-14.3" font-family="Times,serif" font-size="14.00">listToJoinedWords&#45;#0</text>
</g>
<!-- &#45;8191277955247515404 -->
<g id="node2" class="node">
<title>&#45;8191277955247515404</title>
<polygon fill="none" stroke="black" points="166,-108 19,-108 19,-72 166,-72 166,-108"/>
<text text-anchor="middle" x="92.5" y="-86.3" font-family="Times,serif" font-size="14.00">stringToVector&#45;#1</text>
</g>
<!-- &#45;4696367986999773260&#45;&gt;&#45;8191277955247515404 -->
<g id="edge1" class="edge">
<title>&#45;4696367986999773260&#45;&gt;&#45;8191277955247515404</title>
<path fill="none" stroke="black" d="M92.5,-36.3C92.5,-44.02 92.5,-53.29 92.5,-61.89"/>
<polygon fill="black" stroke="black" points="89,-61.9 92.5,-71.9 96,-61.9 89,-61.9"/>
</g>
<!-- &#45;6151261586396824859 -->
<g id="node3" class="node">
<title>&#45;6151261586396824859</title>
<polygon fill="none" stroke="black" points="185,-180 0,-180 0,-144 185,-144 185,-180"/>
<text text-anchor="middle" x="92.5" y="-158.3" font-family="Times,serif" font-size="14.00">vectorEnhancedDoc&#45;#2</text>
</g>
<!-- &#45;8191277955247515404&#45;&gt;&#45;6151261586396824859 -->
<g id="edge2" class="edge">
<title>&#45;8191277955247515404&#45;&gt;&#45;6151261586396824859</title>
<path fill="none" stroke="black" d="M92.5,-108.3C92.5,-116.02 92.5,-125.29 92.5,-133.89"/>
<polygon fill="black" stroke="black" points="89,-133.9 92.5,-143.9 96,-133.9 89,-133.9"/>
</g>
<!-- 574818999653916894 -->
<g id="node4" class="node">
<title>574818999653916894</title>
<polygon fill="none" stroke="black" points="183.5,-252 1.5,-252 1.5,-216 183.5,-216 183.5,-252"/>
<text text-anchor="middle" x="92.5" y="-230.3" font-family="Times,serif" font-size="14.00">sendToRedisSearch&#45;#3</text>
</g>
<!-- &#45;6151261586396824859&#45;&gt;574818999653916894 -->
<g id="edge3" class="edge">
<title>&#45;6151261586396824859&#45;&gt;574818999653916894</title>
<path fill="none" stroke="black" d="M92.5,-180.3C92.5,-188.02 92.5,-197.29 92.5,-205.89"/>
<polygon fill="black" stroke="black" points="89,-205.9 92.5,-215.9 96,-205.9 89,-205.9"/>
</g>
</g>
</svg>
